<?xml version="1.0" encoding="UTF-8"?> <svg xmlns="http://www.w3.org/2000/svg" xmlns:xlink="http://www.w3.org/1999/xlink" width="643px" height="451px" viewBox="0 0 643 451"><!-- Generator: Sketch 52.3 (67297) - http://www.bohemiancoding.com/sketch --><title>Group</title><desc>Created with Sketch.</desc><defs><path d="M193.0523,362.827442 C174.795455,357.84337 164,351.676373 164,345 C164,328.431458 230.485715,315 312.5,315 C394.514285,315 461,328.431458 461,345 C461,352.295939 448.107945,358.983576 426.674901,364.183905 C522.947839,369.117688 589,379.273073 589,391 C589,407.568542 457.147859,421 294.5,421 C131.852141,421 0,407.568542 0,391 C0,378.063049 80.3863762,367.038686 193.05229,362.827439 Z" id="path-1"></path><filter x="-7.6%" y="-42.5%" width="115.3%" height="184.9%" id="filter-2"><feOffset dx="0" dy="0" in="SourceAlpha" result="shadowOffsetOuter1"></feOffset><feGaussianBlur stdDeviation="15" in="shadowOffsetOuter1" result="shadowBlurOuter1"></feGaussianBlur><feColorMatrix values="0 0 0 0 0 0 0 0 0 0 0 0 0 0 0 0 0 0 0.5 0" type="matrix" in="shadowBlurOuter1"></feColorMatrix></filter></defs><g id="Welcome" stroke="none" stroke-width="1" fill="none" fill-rule="evenodd"><g id="Desktop-HD-Copy-15" transform="translate(-134.000000, -260.000000)"><g id="Group" transform="translate(161.000000, 260.000000)"><g id="Combined-Shape" opacity="0.239629836" fill="black" fill-opacity="1"><use filter="url(#filter-2)" xlink:href="#path-1"></use></g><g id="Group-Copy" transform="translate(36.000000, 0.000000)"><polygon id="Fill-4" fill="#E4EFFF" points="273 88 366 88 366 0 273 0"></polygon><polygon id="Fill-5" fill="#D9E1E4" points="289 23 350 23 350 20 289 20"></polygon><polygon id="Fill-6" fill="#D9E1E4" points="289 18 309 18 309 15 289 15"></polygon><polygon id="Fill-7" fill="#D9E1E4" points="290 37 294 37 294 33 290 33"></polygon><polygon id="Fill-8" fill="#D9E1E4" points="299 37 303 37 303 33 299 33"></polygon><polygon id="Fill-9" fill="#D9E1E4" points="308 37 312 37 312 33 308 33"></polygon><polygon id="Fill-10" fill="#BAC2C6" points="317 37 321 37 321 33 317 33"></polygon><polygon id="Fill-11" fill="#BAC2C6" points="327 37 331 37 331 33 327 33"></polygon><polygon id="Fill-12" fill="#FFC40E" points="336 37 340 37 340 33 336 33"></polygon><polygon id="Fill-13" fill="#FFC40E" points="345 37 349 37 349 33 345 33"></polygon><polygon id="Fill-14" fill="#BAC2C6" points="290 45 294 45 294 41 290 41"></polygon><polygon id="Fill-15" fill="#BAC2C6" points="299 45 303 45 303 41 299 41"></polygon><polygon id="Fill-16" fill="#BAC2C6" points="308 45 312 45 312 41 308 41"></polygon><polygon id="Fill-17" fill="#BAC2C6" points="317 45 321 45 321 41 317 41"></polygon><polygon id="Fill-18" fill="#BAC2C6" points="327 45 331 45 331 41 327 41"></polygon><polygon id="Fill-19" fill="#FFC40E" points="336 45 340 45 340 41 336 41"></polygon><polygon id="Fill-20" fill="#FFC40E" points="345 45 349 45 349 41 345 41"></polygon><polygon id="Fill-21" fill="#BAC2C6" points="290 53 294 53 294 49 290 49"></polygon><polygon id="Fill-22" fill="#BAC2C6" points="299 53 303 53 303 49 299 49"></polygon><polygon id="Fill-23" fill="#3BB6D5" points="308 53 312 53 312 49 308 49"></polygon><polygon id="Fill-24" fill="#3BB6D5" points="317 53 321 53 321 49 317 49"></polygon><polygon id="Fill-25" fill="#BAC2C6" points="327 53 331 53 331 49 327 49"></polygon><polygon id="Fill-26" fill="#FFC40E" points="336 53 340 53 340 49 336 49"></polygon><polygon id="Fill-27" fill="#FFC40E" points="345 53 349 53 349 49 345 49"></polygon><polygon id="Fill-28" fill="#165670" points="290 61 294 61 294 57 290 57"></polygon><polygon id="Fill-29" fill="#BAC2C6" points="299 61 303 61 303 57 299 57"></polygon><polygon id="Fill-30" fill="#BAC2C6" points="308 61 312 61 312 57 308 57"></polygon><polygon id="Fill-31" fill="#BAC2C6" points="317 61 321 61 321 57 317 57"></polygon><polygon id="Fill-32" fill="#BAC2C6" points="327 61 331 61 331 57 327 57"></polygon><polygon id="Fill-33" fill="#FFC40E" points="336 61 340 61 340 57 336 57"></polygon><polygon id="Fill-34" fill="#FFC40E" points="345 61 349 61 349 57 345 57"></polygon><polygon id="Fill-35" fill="#BAC2C6" points="290 69 294 69 294 65 290 65"></polygon><polygon id="Fill-36" fill="#BAC2C6" points="299 69 303 69 303 65 299 65"></polygon><polygon id="Fill-37" fill="#BAC2C6" points="308 69 312 69 312 65 308 65"></polygon><polygon id="Fill-38" fill="#BAC2C6" points="317 69 321 69 321 65 317 65"></polygon><polygon id="Fill-39" fill="#BAC2C6" points="327 69 331 69 331 65 327 65"></polygon><polygon id="Fill-40" fill="#FFC40E" points="336 69 340 69 340 65 336 65"></polygon><polygon id="Fill-41" fill="#FFC40E" points="345 69 349 69 349 65 345 65"></polygon><polygon id="Fill-42" fill="#BAC2C6" points="290 77 294 77 294 73 290 73"></polygon><polygon id="Fill-43" fill="#BAC2C6" points="299 77 303 77 303 73 299 73"></polygon><polygon id="Fill-44" fill="#BAC2C6" points="308 77 312 77 312 73 308 73"></polygon><polygon id="Fill-45" fill="#BAC2C6" points="317 77 321 77 321 73 317 73"></polygon><polygon id="Fill-46" fill="#BAC2C6" points="327 77 331 77 331 73 327 73"></polygon><polygon id="Fill-47" fill="#D9E1E4" points="336 77 340 77 340 73 336 73"></polygon><polygon id="Fill-48" fill="#D9E1E4" points="345 77 349 77 349 73 345 73"></polygon><path d="M553,112.070032 C553,114.792495 550.79376,117 548.077297,117 L322.920813,117 C320.20435,117 318,114.792495 318,112.070032 L318,68.9290218 C318,66.2065584 320.20435,64 322.920813,64 L548.077297,64 C550.79376,64 553,66.2065584 553,68.9290218 L553,112.070032" id="Fill-92" fill="#E4EFFF"></path><path d="M373,64 L322.866545,64 C320.18004,64 318,66.2065584 318,68.9290218 L318,112.070032 C318,114.792495 320.18004,117 322.866545,117 L373,117 L373,64" id="Fill-93" fill="#86C0F0"></path><polygon id="Fill-94" fill="#ACD5F4" points="387 83 442 83 442 79 387 79"></polygon><polygon id="Fill-95" fill="#ACD5F4" points="448 83 477 83 477 79 448 79"></polygon><polygon id="Fill-96" fill="#ACD5F4" points="420 93 442 93 442 89 420 89"></polygon><polygon id="Fill-97" fill="#ACD5F4" points="429 105 441 105 441 101 429 101"></polygon><polygon id="Fill-98" fill="#ACD5F4" points="409 93 414 93 414 89 409 89"></polygon><polygon id="Fill-99" fill="#ACD5F4" points="388 93 404 93 404 89 388 89"></polygon><polygon id="Fill-100" fill="#ACD5F4" points="388 105 425 105 425 101 388 101"></polygon><polygon id="Fill-101" fill="#ACD5F4" points="448 93 476 93 476 89 448 89"></polygon><polygon id="Fill-102" fill="#ACD5F4" points="447 105 476 105 476 101 447 101"></polygon><path d="M498.5,77 C491.05692,77 485,83.0564004 485,90.5009418 C485,97.9435996 491.05692,104 498.5,104 C505.94308,104 512,97.9435996 512,90.5009418 C512,83.0564004 505.94308,77 498.5,77" id="Fill-103" fill="#FEC12F"></path><polyline id="Fill-104" fill="#FFFFFF" points="504 93.3080961 499.452355 88.8744259 499.452355 81 497 81 497 89.8645847 502.262719 95 504 93.3080961"></polyline><path d="M531.998603,64.0008789 C528.89719,64.0008789 526.383285,61.4525495 526.383285,58.3064988 C526.383285,55.1679903 528.89719,52.614947 531.998603,52.614947 C535.10281,52.614947 537.623233,55.1679903 537.623233,58.3064988 C537.623233,61.4525495 535.10281,64.0008789 531.998603,64.0008789 Z M532.000466,38 C521.50724,38 513,46.6151068 513,57.2373883 C513,67.8700404 532.000466,97 532.000466,97 C532.000466,97 551,67.8700404 551,57.2373883 C551,46.6151068 542.49276,38 532.000466,38 Z" id="Fill-105" fill="#3BB6D5"></path><path d="M287.605128,299 L283,306.23359 L321.678756,319 C321.678756,319 324.263037,316.453684 314.772003,311.341702 C303.722137,305.384173 287.605128,299 287.605128,299" id="Fill-217" fill="#88BDDA"></path><path d="M279.395673,299 L284,306.23359 L245.321027,319 C245.321027,319 242.737608,316.453684 252.227986,311.341702 C263.280061,305.384173 279.395673,299 279.395673,299" id="Fill-218" fill="#88BDDA"></path><polygon id="Fill-219" fill="#88BDDA" points="280 307 288 307 288 278 280 278"></polygon><path d="M288.014962,300 L284,306.872668 L317.719749,319 C317.719749,319 319.973025,316.581661 311.701132,311.723794 C302.065415,306.063666 288.014962,300 288.014962,300" id="Fill-220" fill="#91E2F6"></path><path d="M279.98635,300 L284,306.872668 L250.279408,319 C250.279408,319 248.029201,316.581661 256.300362,311.723794 C265.935226,306.063666 279.98635,300 279.98635,300" id="Fill-221" fill="#91E2F6"></path><path d="M314,322.500836 C314,323.881645 315.120027,325 316.499164,325 C317.880809,325 319,323.881645 319,322.500836 C319,321.120863 317.880809,320 316.499164,320 C315.120027,320 314,321.120863 314,322.500836" id="Fill-222" fill="#001F46"></path><path d="M249,322.500836 C249,323.881645 250.120401,325 251.500836,325 C252.881271,325 254,323.881645 254,322.500836 C254,321.120863 252.881271,320 251.500836,320 C250.120401,320 249,321.120863 249,322.500836" id="Fill-223" fill="#001F46"></path><path d="M320,322.500836 C320,323.881645 321.119191,325 322.499164,325 C323.878302,325 325,323.881645 325,322.500836 C325,321.120863 323.878302,320 322.499164,320 C321.119191,320 320,321.120863 320,322.500836" id="Fill-224" fill="#367082"></path><path d="M242,322.500836 C242,323.881645 243.119378,325 244.501254,325 C245.87895,325 247,323.881645 247,322.500836 C247,321.120863 245.87895,320 244.501254,320 C243.119378,320 242,321.120863 242,322.500836" id="Fill-225" fill="#367082"></path><polygon id="Fill-226" fill="#367082" points="281 278 287 278 287 267 281 267"></polygon><path d="M277,262 C277,265.313783 279.619592,268 282.85001,268 L286.150943,268 C289.379455,268 292,265.313783 292,262 C292,258.683284 289.379455,256 286.150943,256 L282.85001,256 C279.619592,256 277,258.683284 277,262" id="Fill-227" fill="#367082"></path><path d="M239.225199,257 C239.082321,256.32556 239,252.098881 239,251.371269 C239,246.747201 242.031672,243 245.772058,243 L321.227942,243 C324.968328,243 328,246.747201 328,251.371269 C328,252.098881 327.917679,256.32556 327.775747,257 L239.225199,257" id="Fill-228" fill="#3DC7C9"></path><path d="M329,258.50091 C329,259.880597 328.164355,261 327.133695,261 L240.866305,261 C239.835645,261 239,259.880597 239,258.50091 C239,257.119403 239.835645,256 240.866305,256 L327.133695,256 C328.164355,256 329,257.119403 329,258.50091" id="Fill-229" fill="#367082"></path><path d="M269.653182,242.611575 C269.653182,242.611575 318.327343,242.713275 337.114611,242.998417 C350.113369,243.197066 351.299733,224.637181 346.171791,221.84279 C330.604791,213.36172 282.037878,209 282.037878,209 L249,239.381868 C249,239.381868 250.854525,239.333393 269.653182,242.611575" id="Fill-230" fill="#3D7AA8"></path><path d="M314.857122,143.316984 C314.857122,143.316984 327.379571,139.793128 332.835639,156.243841 C341.200722,181.492729 340.462543,204.644311 339.295896,209.581341 C338.760075,211.852546 337.149761,219.698095 323.155703,219.999075 C317.480177,220.122333 319.749817,207.888208 319.749817,207.888208 C319.749817,207.888208 316.110222,197.50105 312.234068,179.924766 C308.356013,162.350393 314.857122,143.316984 314.857122,143.316984" id="Fill-231" fill="#74B2E8"></path><path d="M325,143.998461 L292.930921,133.629947 L268.658149,132 L242.059098,140.046383 C242.059098,140.046383 233.356178,146.043717 241.436986,165.321472 C249.521588,184.601122 246.409135,214.803032 246.409135,214.803032 L315.023459,217 C315.023459,217 316.320789,189.080396 320.869029,161.152258 C321.880908,154.915031 322.007986,147.579793 325,143.998461" id="Fill-232" fill="#86C0F0"></path><path d="M278.245296,216 L281.536299,216 C284.979085,189.249605 284.817481,161.65256 281.027381,135 C280.036331,135.622759 279.043494,136.245517 278.050658,136.870157 C278.88189,164.128542 277.461384,191.385987 278.245296,216" id="Fill-233" fill="#74B2E8"></path><path d="M291.706729,141.938365 C291.234042,145.643357 288.208463,148.850437 285.027532,149 C282.005743,149 278.990584,149 275.972583,149 C272.789758,148.850437 269.763232,145.643357 269.291492,141.938365 C268.552622,135.835635 267.809962,129.731012 267.069198,123.628282 C266.572828,119.969673 268.747759,112.619325 273.565572,110.446878 C277.972269,108.517707 283.025005,108.517707 287.42886,110.446878 C292.24762,112.616485 294.427287,119.969673 293.930918,123.628282 C293.189206,129.731012 292.447494,135.835635 291.706729,141.938365" id="Fill-234" fill="#E6B09C"></path><polyline id="Fill-235" fill="#74B2E8" points="280 149.537355 274.350532 159 264 145.772646 265.628759 138.81949 268.984934 136 269.029609 141.23769 280 149.537355"></polyline><polyline id="Fill-236" fill="#74B2E8" points="281 149.559992 286.545266 159 296 146.71025 294.44919 139.176078 292.078652 136 291.118192 142.169066 281 149.559992"></polyline><path d="M278.975346,98 C276.470234,98 274.272653,99.3191542 272.995794,101.312245 L270.543962,101.312245 C267.480809,101.312245 265,103.850037 265,106.985183 L265,121 L268.899749,121 L268.899749,115.304087 C268.899749,113.099434 270.646784,111.311205 272.795759,111.311205 L275.072793,111.311205 L271.464684,111.311205 L273.848279,111.311205 C277.798504,111.311205 281,108.032465 281,103.988845 L281,98 L278.975346,98" id="Fill-237" fill="#163F59"></path><path d="M272,125.577652 C272,127.468999 270.497421,129 268.640259,129 L268.361592,129 C266.504431,129 265,127.468999 265,125.577652 L265,121.420461 C265,119.531944 266.504431,118 268.361592,118 L268.640259,118 C270.014152,118 271.191774,118.839551 271.715778,120.035674 L272,125.577652" id="Fill-238" fill="#E6B09C"></path><path d="M276,103.186154 L276,98 L287.811294,98 C291.784124,98 295,101.053038 295,104.819195 L295,110 L283.191527,110 C279.218697,110 276,106.947853 276,103.186154" id="Fill-239" fill="#163F59"></path><path d="M294.999853,132.104756 C294.986354,134.999865 292.747377,139.90507 289.033105,141.458846 C283.98721,143.516574 278.011783,143.511811 272.966853,141.455988 C269.247759,139.90507 267.019389,135.003676 267.000104,132.104756 C267.000104,123.882416 267.000104,115.655314 267.000104,107.43488 C266.979855,104.518812 269.920802,102.070496 273.557935,102 C278.51994,102 283.48291,102 288.443951,102 C292.074334,102.068591 295.023959,104.515001 294.999853,107.43488 C294.999853,115.655314 294.999853,123.882416 294.999853,132.104756" id="Fill-240" fill="#FFC4AD"></path><path d="M283.273994,98 C285.912046,98 288.230932,99.3191542 289.57557,101.312245 L292.163383,101.312245 C295.383619,101.312245 298,103.850037 298,106.985183 L298,121 L293.892204,121 L293.892204,115.304087 C293.892204,113.099434 292.050099,111.311205 289.783422,111.311205 L289.741064,111.311205 L291.185196,111.311205 L284.533915,111.311205 C280.371939,111.311205 277,108.032465 277,103.988845 L277,98 L283.273994,98" id="Fill-241" fill="#163F59"></path><path d="M290,121.417631 C290,119.530057 291.502249,118 293.361074,118 L293.639852,118 C295.494046,118 297,119.530057 297,121.417631 L297,125.575765 C297,127.462396 295.494046,129 293.639852,129 L293.361074,129 C291.986637,129 290.804843,128.159506 290.282482,126.958666 L290,121.417631" id="Fill-242" fill="#FFC4AD"></path><path d="M276.863146,104.525925 C276.95132,104.090031 277,103.641658 277,103.186154 L277,98 L272.025488,98 C268.144891,98 265,101.053038 265,104.819195 L265,110 L269.980023,110 C270.472331,110 270.952698,109.94919 271.420207,109.853811 C271.968542,107.185856 274.12147,105.079483 276.863146,104.525925" id="Fill-243" fill="#163F59"></path><path d="M213.393883,334.841511 C212.645521,335.759547 213.193497,338.177555 213.193497,338.177555 C213.193497,338.177555 226.30218,339.652559 230.521689,338.651937 C231.61764,338.389779 233.468602,337.437172 235.215097,336.425027 C235.510453,336.253136 236.028038,335.23811 236.311998,335.067179 C236.84098,334.749323 237.115443,335.279403 237.568449,334.991316 C238.732779,334.249973 239.556167,333.665157 239.570412,333.591215 C240.723346,327.513546 239.190533,325.062889 239.190533,325.062889 C239.190533,325.062889 228.024933,321.31104 225.932748,323.926867 C221.011412,330.083279 215.034012,332.828745 213.393883,334.841511" id="Fill-244" fill="#161711"></path><path d="M335,328.874654 L335.898822,339.064245 L345.726565,340.060638 C345.726565,340.060638 346.407975,338.700854 347.237149,338.784864 C347.938324,338.858128 348.709146,340.366395 349.661615,340.46115 C351.729375,340.673128 354.018311,340.903666 354.938779,340.996467 C356.780658,341.186954 374.655442,343 374.655442,343 C374.655442,343 375.300146,340.94274 374.825794,340.163208 C374.58203,339.762697 372.998975,338.946045 371.932624,338.516228 C366.996165,336.52051 352.904902,330.423948 350.855024,325.133293 C348.361853,318.697762 335,328.874654 335,328.874654" id="Fill-245" fill="#161711"></path><path d="M320.400439,203.010947 L287,216.413448 C287,216.413448 310.693496,219.733863 325.507017,216.767614 C335.523364,214.759748 320.860287,202.584276 320.400439,203.010947" id="Fill-246" fill="#FFC4AD"></path><path d="M246,223.584529 C246,223.584529 242.731963,254.031136 243.198825,270.126758 C243.549213,282.267428 243.587717,305.537126 240.640226,325.37139 C240.461182,326.583285 224.653314,325.669877 224.653314,325.669877 C224.653314,325.669877 218.98262,250.189534 217.299027,237.756989 C215.613509,225.322554 220.511234,216.354724 246,223.584529" id="Fill-247" fill="#3D7AA8"></path><path d="M342.584558,232.310723 C342.584558,232.310723 337.648351,240.169126 324.115518,242.028396 C319.224076,242.700818 332.003376,330 332.003376,330 L352,323.54757 L348.135341,227 L342.584558,232.310723" id="Fill-248" fill="#316091"></path><path d="M286.948221,241.402547 C286.948221,241.402547 260.185341,245.145012 242.318915,246.981626 C235.770216,247.653399 230.098941,229.685825 229.339907,228.906457 C224.555604,223.998215 219.838134,224.617593 220.004262,224.443568 C223.873905,220.344633 243.916229,216.539482 264.86271,211.723866 C285.804418,206.91012 289,209.942452 289,209.942452 L286.948221,241.402547" id="Fill-249" fill="#316091"></path><path d="M264.822821,211.827733 C243.894964,216.825457 223.870461,220.774504 220.004259,225.028444 C219.838278,225.20905 224.551553,224.566249 229.331602,229.660102 C229.537647,229.883432 230.743391,235.857979 231.604772,238 C228.193586,231.745805 277.372476,214.095983 288,209.52744 C286.015865,208.883669 280.231348,208.150566 264.822821,211.827733" id="Fill-250" fill="#3D7AA8"></path><polyline id="Fill-251" fill="#316091" points="242 241.584348 239.983396 300.367595 237.959261 314 237.736135 300.367595 238.183328 291.871589 233.470387 278.689006 231 248.067401 234.593547 249.410306 234.14353 236 242 241.584348"></polyline><path d="M342.099037,224 L347.158072,225.351757 L349,296.543332 L338.419038,322 L343.477108,304.654817 L341.409519,268.832792 C341.409519,268.832792 334.048556,286.179864 334.048556,285.278693 C334.048556,284.378466 340.260002,247.65527 340.260002,247.65527 C340.260002,247.65527 333.358074,253.289951 334.048556,253.063242 C334.740003,252.838421 338.188556,227.380809 342.099037,224" id="Fill-252" fill="#3D7AA8"></path><path d="M257,140.25166 C257,140.25166 246.402217,131.881712 236.036742,147.416555 C220.842636,170.183608 214.243946,194.397482 211.82963,201.407835 C209.978686,206.781743 210.99727,221.979057 217.211287,228.243244 C218.707655,229.748848 227.679279,228.542847 227.679279,228.542847 L233.569758,224.434671 L231.101832,219.65523 L230.970159,215.88079 C230.970159,215.88079 238.499025,197.567974 247.751864,180.252575 C257,162.940968 257,140.25166 257,140.25166" id="Fill-253" fill="#86C0F0"></path><path d="M231.629058,210.001713 L266,211.835399 C266,211.835399 232.893532,227.364574 231.803792,224.690409 C225.598854,209.520478 231.629058,210.001713 231.629058,210.001713" id="Fill-254" fill="#FFC4AD"></path><path d="M250.298011,208.983265 C252.325388,208.017878 252.146948,208 252.146948,208 C252.146948,208 254.000631,210.184824 256.683869,210.593185 C258.020267,210.798306 262.325595,210.850998 262.325595,210.850998 L268.719996,211.008132 L271.687977,210.839707 C271.687977,210.839707 273.360373,210.623295 273.80837,210.905572 C275.099209,211.727939 273.995352,212.388467 273.995352,212.388467 L262.532509,214.000269 L273.544507,215.351435 C273.544507,215.351435 274.927414,215.757914 274.994803,216.499362 C275.05365,217.194704 274.593314,217.169299 274.593314,217.169299 L261.800717,218.523288 L267.408275,219.850931 C267.408275,219.850931 268.750368,220.279051 268.852876,221.000739 C268.966774,221.790174 269.018977,222 269.018977,222 L257.251458,220.857719 C257.251458,220.857719 248.270634,209.954298 250.298011,208.983265" id="Fill-255" fill="#FFC4AD"></path><path d="M262.203028,216 L269.928888,217.59333 C269.928888,217.59333 271.690091,217.734266 272.47306,218.375471 C273.37414,219.108123 272.846446,220 272.846446,220 L261,218.876815 L262.203028,216" id="Fill-256" fill="#FFC4AD"></path><path d="M310.962686,222.842462 L311,222.785949 L310.962686,221 L242,221 L242,222.842462 L242.236321,223.176118 C243.412186,224.724405 245.517069,225 247.930988,225 L305.031698,225 C307.446574,225 309.550501,224.724405 310.728279,223.176118 L310.962686,222.842462" id="Fill-257" fill="#B6C2C9"></path><polygon id="Fill-258" fill="#879BA6" points="254 222 299 222 299 220 254 220"></polygon><path d="M310.817367,220 L310.999974,175.137011 C311.005711,173.952209 310.044868,173 308.854571,173 L244.351913,173 C243.16066,173 242.190256,173.952209 242.186432,175.137011 L242,220 L310.817367,220" id="Fill-259" fill="#E4EEF3"></path><path d="M280.99991,197.001373 C280.994415,199.207165 279.194577,201 276.986227,201 C274.776961,201 272.992695,199.207165 273.000022,197.001373 C273.009182,194.791004 274.808103,193 277.017369,193 C279.229383,193 281.014566,194.791004 280.99991,197.001373" id="Fill-260" fill="#B6C2C9"></path><polyline id="Fill-261" fill="#74B2E8" points="226.24653 228 224 212.216897 227.728399 208 236 209.453526 234.310401 226.924371 226.24653 228"></polyline><polyline id="Fill-262" fill="#86C0F0" points="333.09458 216.795171 334 211.109642 322.9669 201 317 203.748327 324.805121 219 333.09458 216.795171"></polyline><path d="M42.6446812,296 C40.2682303,296 36.513829,295.475332 33.2239603,292.708297 C28.4925737,288.729326 26.4427625,281.652448 27.1292928,271.676187 C27.5957813,264.941525 30.3370126,258.125563 33.2396078,250.905938 C38.1255126,238.763883 43.663719,225.002447 40.7660136,206.80071 L46.1477459,206 C49.2635371,225.594235 43.1923407,240.687667 38.3152375,252.813651 C35.446871,259.940632 32.9706678,266.097686 32.5609012,272.02502 C32.0044401,280.115311 33.4488919,285.8791 36.7456063,288.696239 C39.8672653,291.364957 43.7761848,290.677689 43.9424386,290.648383 L45.0309118,295.805258 C44.9321375,295.824165 44.0187197,296 42.6446812,296" id="Fill-263" fill="#367082"></path><path d="M82.8030803,338 L88,345.595412 L44.3625553,359 C44.3625553,359 41.4462982,356.32754 52.1555382,350.958718 C64.6210514,344.704592 82.8030803,338 82.8030803,338" id="Fill-264" fill="#88BDDA"></path><path d="M90.1944379,338 L85,345.595412 L128.63788,359 C128.63788,359 131.552441,356.32754 120.844306,350.958718 C108.375929,344.704592 90.1944379,338 90.1944379,338" id="Fill-265" fill="#88BDDA"></path><polygon id="Fill-266" fill="#88BDDA" points="82 346 91 346 91 314 82 314"></polygon><path d="M81.6311157,339 L86,346.597835 L49.3047627,360 C49.3047627,360 46.8533279,357.32708 55.8557346,351.95716 C66.3414335,345.703009 81.6311157,339 81.6311157,339" id="Fill-267" fill="#91E2F6"></path><path d="M90.3676407,339 L86,346.597835 L122.695527,360 C122.695527,360 125.145851,357.32708 116.144066,351.95716 C105.659092,345.703009 90.3676407,339 90.3676407,339" id="Fill-268" fill="#91E2F6"></path><path d="M53,363.001361 C53,364.657692 51.6574887,366 50,366 C48.3434191,366 47,364.657692 47,363.001361 C47,361.345031 48.3434191,360 50,360 C51.6574887,360 53,361.345031 53,363.001361" id="Fill-269" fill="#001F46"></path><path d="M125,363.001361 C125,364.657692 123.65547,366 121.998638,366 C120.340899,366 119,364.657692 119,363.001361 C119,361.345031 120.340899,360 121.998638,360 C123.65547,360 125,361.345031 125,363.001361" id="Fill-270" fill="#001F46"></path><path d="M45,363.001361 C45,364.657692 43.6563777,366 41.9995461,366 C40.3436223,366 39,364.657692 39,363.001361 C39,361.345031 40.3436223,360 41.9995461,360 C43.6563777,360 45,361.345031 45,363.001361" id="Fill-271" fill="#367082"></path><path d="M133,363.001361 C133,364.657692 131.657489,366 129.998185,366 C128.344327,366 127,364.657692 127,363.001361 C127,361.345031 128.344327,360 129.998185,360 C131.657489,360 133,361.345031 133,363.001361" id="Fill-272" fill="#367082"></path><polygon id="Fill-273" fill="#367082" points="83 314 89 314 89 302 83 302"></polygon><path d="M94,295.999558 C94,299.313776 91.2065536,302 87.7618856,302 L84.2408738,302 C80.795286,302 78,299.313776 78,295.999558 C78,292.684455 80.795286,290 84.2408738,290 L87.7618856,290 C91.2065536,290 94,292.684455 94,295.999558" id="Fill-274" fill="#367082"></path><path d="M134.75204,291 C134.908547,290.230148 135,285.397829 135,284.568164 C135,279.282424 131.662434,275 127.544216,275 L44.4557839,275 C40.3385092,275 37,279.282424 37,284.568164 C37,285.397829 37.0895675,290.230148 37.2460748,291 L134.75204,291" id="Fill-275" fill="#3DC7C9"></path><path d="M36,293.500823 C36,294.880929 36.9282589,296 38.0743744,296 L133.923731,296 C135.069847,296 136,294.880929 136,293.500823 C136,292.119895 135.069847,291 133.923731,291 L38.0743744,291 C36.9282589,291 36,292.119895 36,293.500823" id="Fill-276" fill="#367082"></path><path d="M40.3891958,242.586035 C42.4348241,242.738259 55.4192992,242.966595 57.6576452,242.991965 C71.8708134,243.165801 84.1182607,240.498126 84.7970032,236.997919 C87.6050416,222.455848 87.729133,207.542614 85.1664572,192.994906 C84.5601014,189.498457 72.1321575,186.830782 57.6181616,187.008376 C55.3337513,187.034686 42.0813516,187.26772 40,187.419004 C44.4522498,205.552429 44.5810416,224.448852 40.3891958,242.586035" id="Fill-277" fill="#3DC7C9"></path><path d="M39.5587919,187.000355 C37.93496,187.019087 36.804796,187.773028 37.0281448,188.68244 C41.0647186,205.682169 41.2171326,223.314084 37.4815524,240.319433 C37.2792923,241.230718 38.3998705,241.981849 39.9891936,241.999644 C41.575641,242.018376 43.0441832,241.295342 43.2464432,240.38031 C47.0299524,223.335626 46.9139644,205.661564 42.901355,188.620626 C42.6808819,187.705595 41.1854995,186.981624 39.5587919,187.000355" id="Fill-278" fill="#367082"></path><path d="M38.4423017,242.75072 C38.8657419,242.88605 41.6893053,242.993936 42.1815899,242.999614 C45.2880756,243.037469 48.4879255,240.286386 49.1075251,236.820798 C51.6962632,222.393466 51.6283618,207.600837 48.9085365,193.176345 C48.2606447,189.70981 44.9815765,186.963459 41.8137911,187.000368 C41.3111327,187.006992 38.4347571,187.115824 38,187.252101 C42.4777152,205.493283 42.6248347,224.502913 38.4423017,242.75072" id="Fill-279" fill="#33A8B5"></path><path d="M66,111 L59,111 L59,115 C60.5705669,112.580324 63.1159362,111 66,111" id="Fill-280" fill="#DCE5EA"></path><path d="M68.0942628,111 L68.0942628,120.951081 C68.0942628,125.762188 64.2112556,129.658514 59.4135469,129.658514 L59,129.658514 L59,145 L90,145 L90,111 L68.0942628,111" id="Fill-281" fill="#DCE5EA"></path><path d="M84.5832923,133.636368 C84.5832923,133.636368 72.3519565,138.001417 84.0965438,173.044145 C95.8439776,208.084027 103.667061,203.838464 103.667061,203.838464 L113.376413,202.899642 L132,180.827835 L121.973739,172.066442 L119.94989,172.871553 C119.94989,172.871553 117.356745,171.799968 117.055966,169.389376 C116.757086,166.977836 112.054696,156.895453 108.505132,136.305847 C106.86461,126.813311 86.9335382,132.7791 84.5832923,133.636368" id="Fill-282" fill="#CFD9E8"></path><path d="M130.036336,181.063594 C130.036336,181.063594 154.119257,193.2344 169.283104,169.679964 C173.793269,162.681494 171.865613,170.740452 169.399501,178.398803 C166.936228,186.058089 151.972055,203.404038 134.964775,204.563741 C117.954656,205.728125 111.46668,204.787445 108.281364,198.967398 C105.094155,193.15016 130.036336,181.063594 130.036336,181.063594" id="Fill-283" fill="#FFC4AD"></path><path d="M108.956276,175.3303 L114.91619,171.424654 L117.389245,170 C118.073124,171.792035 120,172.599713 120,172.599713 L115.024317,174.667518 L109.60134,178.193631 L104,185 L108.956276,175.3303" id="Fill-284" fill="#AEBDDC"></path><path d="M107.692812,234 L62.2177931,233.012135 L43.3132117,169.492294 C43.3132117,169.492294 34.6599787,131.2279 50.8261474,130.594264 C74.313629,129.672698 105.138471,130.097964 105.138471,130.097964 C105.138471,130.097964 120.976143,143.887353 107.692812,234" id="Fill-285" fill="#CFD9E8"></path><path d="M90.8105524,231.20993 C92.5325568,231.475508 94.252738,231.73823 95.9738308,232 C98.7851921,198.452491 95.8051856,164.419518 87.2152188,132 C85.8113613,132.487368 84.4056807,132.974737 83,133.462105 C91.1533124,165.232433 93.810614,198.501038 90.8105524,231.20993" id="Fill-286" fill="#AEBDDC"></path><path d="M183.650461,368.988507 C183.650461,368.988507 179.189316,375.836955 176.910169,371.63747 C170.069873,359.041861 163.901987,319.278026 163.517209,302.963442 C162.998138,281.203082 162,267.935518 162,267.935518 L184,260 L183.650461,368.988507" id="Fill-287" fill="#163F59"></path><path d="M106.288301,234.08706 L184,260.444335 L163.618354,271.712108 C163.618354,271.712108 83.4686002,285.6379 82.0412366,256.170157 C80.8398485,231.378979 106.288301,234.08706 106.288301,234.08706" id="Fill-288" fill="#163F59"></path><path d="M155.159291,369.517828 C155.159291,369.517828 151.079436,373.182875 148.767003,368.986401 C141.828737,356.396032 130.444377,322.947389 130.05108,306.63703 C129.528294,284.890202 133.190693,269.763003 133.190693,269.763003 L156,262 L155.159291,369.517828" id="Fill-289" fill="#194866"></path><path d="M82.6766122,234.585886 L156,262.603052 L135.916079,273.674429 C135.916079,273.674429 61.5019742,287.759453 60.0621516,257.955501 C58.6223291,228.147728 82.6766122,234.585886 82.6766122,234.585886" id="Fill-290" fill="#194866"></path><path d="M58.0197047,260.111699 C57.8295318,262.178049 59.0228669,269.08031 61.297335,271.854683 C68.2928457,280.404829 84.8616612,277.538106 98.0748754,277.538106 C98.801336,277.538106 102.484035,267.109197 102.484035,267.109197 L108,233 L61.6729265,233.797488 C61.6729265,233.797488 59.6209607,242.894043 58.0197047,260.111699" id="Fill-291" fill="#194866"></path><path d="M133,212.913178 L150.169666,210.01513 C150.169666,210.01513 152.840396,209.745502 152.964549,211.482702 C153.125274,213.775444 152.687371,221.255356 152.687371,221.255356 L149.604723,219.463869 L145.182379,222 L140.052652,215.61579 C140.052652,215.61579 137.395396,216.090806 135.192405,215.57236 C134.454225,215.395926 133,212.913178 133,212.913178" id="Fill-292" fill="#FFC4AD"></path><path d="M91.4889435,209 L136,213.876252 C136,213.876252 112.123052,225.921712 101.186362,225.99802 C90.2496718,226.079911 80,223.594325 80,223.594325 L91.4889435,209" id="Fill-293" fill="#FFC4AD"></path><path d="M70.3400188,162.06862 L92.8290525,204.333323 L91.5405885,207.763414 L95,208.401351 L84.4969217,225 L68.0213554,221.267978 L38.3704821,162.937501 C38.3704821,162.937501 32.1301993,145.32989 46.2813843,131.885902 C53.3431582,125.175266 68.3510954,158.682068 70.3400188,162.06862" id="Fill-294" fill="#AEBDDC"></path><path d="M75,218.318128 C75,218.318128 85.6739426,210.348124 91.0950058,206 L90.5312076,207.47489 L94,208.103118 L90.3142886,213.734769 L83.9185234,221 L80.2538349,219.693136 L81.6423075,217.13915 L75,218.318128" id="Fill-295" fill="#CFD9E8"></path><path d="M89,100.497645 C89,103.534726 86.5200712,106 83.461429,106 L62.538571,106 C59.4770827,106 57,103.534726 57,100.497645 C57,97.4624475 59.4770827,95 62.538571,95 L83.461429,95 C86.5200712,95 89,97.4624475 89,100.497645" id="Fill-296" fill="#163F59"></path><path d="M86,111.49854 C86,117.29829 81.4723734,122 75.8915488,122 L65.1084512,122 C59.5295007,122 55,117.29829 55,111.49854 C55,105.702684 59.5295007,101 65.1084512,101 L75.8915488,101 C81.4723734,101 86,105.702684 86,111.49854" id="Fill-297" fill="#163F59"></path><path d="M94,127 L94,95.2475743 C94,90.1905322 89.9352483,95.2475743 84.9224278,95.2475743 L80.0813048,95.2475743 C75.066618,95.2475743 71,99.3500668 71,104.406168 L71,127 L94,127" id="Fill-298" fill="#FFC4AD"></path><path d="M74,111.000468 C74,113.210884 72.2087038,115 70.0009359,115 C67.7884885,115 66,113.210884 66,111.000468 C66,108.791925 67.7884885,107 70.0009359,107 C72.2087038,107 74,108.791925 74,111.000468" id="Fill-299" fill="#FFC4AD"></path><path d="M91,116.728343 C91,117.984166 91.9491375,119 93.1194162,119 L94.8841221,119 C96.0544007,119 97,117.984166 97,116.728343 C97,116.728343 93.1318001,105 91.9597523,105 C91.9597523,105 91,106.01675 91,107.270741 L91,116.728343" id="Fill-300" fill="#FFC4AD"></path><path d="M81,125.114723 C71.7129222,125.114723 70.7469897,122.262906 70.4759178,119 C70.4759178,119 68,127.166348 68,129.798279 L68,132.732314 C68,138.40153 73.8213656,143 81,143 L94,143 L94,125.114723 L81,125.114723" id="Fill-301" fill="#163F59"></path><path d="M93,120 L85.9068545,120 C82.6440987,120 80,122.866305 80,126.400592 C80,126.955106 80.0865573,127.487913 80.2086487,128 L93,128 L93,120" id="Fill-302" fill="#163F59"></path><path d="M84,126 L84,127.999692 C84,128.550693 84.4561983,129 85.0200708,129 L90.9761511,129 C91.5381346,129 92,128.550693 92,127.999692 L92,126 L84,126" id="Fill-303" fill="#FFC4AD"></path><path d="M90,89 L71.5891629,89 C69.6054353,89 68,90.6428877 68,92.6682367 L68,100 L90,100 L90,89" id="Fill-304" fill="#163F59"></path><path d="M103,94.4981283 C103,97.5359027 100.500633,100 97.4179861,100 L84.5858138,100 C81.5012666,100 79,97.5359027 79,94.4981283 C79,91.4594181 81.5012666,89 84.5858138,89 L97.4179861,89 C100.500633,89 103,91.4594181 103,94.4981283" id="Fill-305" fill="#163F59"></path><polygon id="Fill-306" fill="#163F59" points="71 111 76 111 76 98 71 98"></polygon><polygon id="Fill-307" fill="#163F59" points="71 108 86 108 86 92 71 92"></polygon><path d="M76,108.498599 C76,104.356996 79.4067636,101 83.6118837,101 L87.5429836,101 C91.7471555,101 94,104.356996 94,108.498599 C94,112.643004 90.5894437,116 86.3852718,116 L83.6118837,116 C79.4067636,116 76,112.643004 76,108.498599" id="Fill-308" fill="#FFC4AD"></path><path d="M167.53481,178.03371 C167.53481,178.03371 164.011931,169.135499 165.272402,166.724396 C166.537473,164.317169 171.719206,155.816285 171.719206,155.816285 L173.239132,153.772468 C173.239132,153.772468 176.322227,154.258953 172.776346,159.933961 C169.228626,165.608 172.411085,163.820993 172.411085,163.820993 L177.494373,159.951405 L184.086546,155.708716 L186.778618,153.441038 C186.778618,153.441038 188.214819,152.033915 188.828494,152.003874 C190.606954,151.915686 190.00984,153.362542 190.00984,153.362542 L180.258209,163.103864 L191.59693,156.659396 C191.59693,156.659396 193.1785,156.085693 193.742491,156.785378 C194.273361,157.444361 193.818856,157.74478 193.818856,157.74478 L182.634703,168.174159 L188.839534,165.530473 C188.839534,165.530473 190.402703,165.012008 190.991536,165.663239 C191.628212,166.378429 191.823263,166.554804 191.823263,166.554804 L169.017014,180 L167.53481,178.03371" id="Fill-309" fill="#FFC4AD"></path><path d="M182,164.833579 L189.958185,161.040404 C189.958185,161.040404 191.645018,159.991884 192.727758,160.000047 C193.967082,160.009118 194,161.095733 194,161.095733 L182.55427,168 L182,164.833579" id="Fill-310" fill="#FFC4AD"></path><path d="M162.806147,375.781115 C163.188094,376.46547 162.887792,378.286397 162.887792,378.286397 C162.887792,378.286397 156.054982,379.491303 153.867469,378.769766 C153.300649,378.583855 152.342497,377.880406 151.44253,377.131736 C151.290502,377.007125 151.027737,376.247401 150.88134,376.12078 C150.605438,375.886633 150.459979,376.284583 150.226306,376.074554 C149.623825,375.523854 149.200587,375.094751 149.194956,375.038475 C148.638459,370.476109 149.450213,368.625035 149.450213,368.625035 C149.450213,368.625035 155.286396,365.723813 156.356222,367.674375 C158.875006,372.264878 161.965301,374.279755 162.806147,375.781115" id="Fill-311" fill="#194866"></path><path d="M176,370.807044 L176.951428,377 L182.012546,377 C182.012546,377 182.293566,376.124694 182.720606,376.124694 C183.079688,376.124694 183.548055,377 184.037544,377 C185.103767,377 186.285705,377 186.755909,377 C187.7055,377 196.911206,377 196.911206,377 C196.911206,377 197.140798,375.697853 196.861614,375.250328 C196.717431,375.017163 195.872533,374.616647 195.307738,374.42203 C192.69223,373.501595 184.779584,371.502776 183.019075,368.62959 C181.653464,366.400427 176,370.807044 176,370.807044" id="Fill-312" fill="#163F59"></path><path d="M134.038968,222.303089 L134,222.22973 L134.038968,220 L225,220 L225,222.303089 L224.768095,222.717181 C223.599064,224.649614 221.501462,225 219.100673,225 L139.942097,225 C137.540357,225 135.443705,224.649614 134.270873,222.717181 L134.038968,222.303089" id="Fill-313" fill="#B4C0C7"></path><path d="M156,222.163006 L156,222.235838 L155.775801,222.636994 C155.419163,223.234682 154.96698,223.679769 154.451417,224 L140.684445,224 C138.384747,224 136.378305,223.662428 135.257309,221.790751 L135.038786,221.383815 L135,221.317919 L135.021758,220 L156,220 L156,222.163006" id="Fill-314" fill="#D6E3EB"></path><polygon id="Fill-315" fill="#8599A4" points="168 222 213 222 213 220 168 220"></polygon><path d="M156,219 L167.651701,175.09859 C167.959733,173.93727 169.15242,173 170.315054,173 L233.376234,173 C234.538869,173 235.235698,173.93727 234.926727,175.09859 L223.275026,219 L156,219" id="Fill-316" fill="#D7DFE2"></path><path d="M192.150371,197.001839 C191.515029,199.208736 192.951803,201 195.351095,201 C197.75539,201 200.214715,199.208736 200.850057,197.001839 C201.483398,194.792184 200.052627,193 197.647332,193 C195.244037,193 192.783712,194.792184 192.150371,197.001839" id="Fill-317" fill="#B4C0C7"></path><path d="M476.919483,298 C479.058419,298 482.436558,297.527053 485.398387,295.037262 C489.657779,291.456777 491.501991,285.087502 490.883363,276.109023 C490.464135,270.04627 487.997404,263.912057 485.382824,257.414907 C480.986283,246.486343 476.004186,234.100387 478.610011,217.719294 L473.767008,217 C470.962754,234.63445 476.427304,248.217349 480.816063,259.130869 C483.397572,265.545277 485.625995,271.08807 485.994643,276.421187 C486.496549,283.702509 485.196068,288.890826 482.228403,291.425749 C479.420259,293.828096 475.901081,293.208469 475.753233,293.184023 L474.771792,297.824173 C474.860307,297.841097 475.683199,298 476.919483,298" id="Fill-318" fill="#367082"></path><path d="M439.605913,335 L435,342.234907 L473.679343,355 C473.679343,355 476.26166,352.454528 466.770004,347.342299 C455.721446,341.384481 439.605913,335 439.605913,335" id="Fill-319" fill="#88BDDA"></path><path d="M433.395695,335 L438,342.234907 L399.321211,355 C399.321211,355 396.736865,352.454528 406.229077,347.342299 C417.27922,341.384481 433.395695,335 433.395695,335" id="Fill-320" fill="#88BDDA"></path><polygon id="Fill-321" fill="#88BDDA" points="433 344 441 344 441 315 433 315"></polygon><path d="M441.014967,337 L437,343.872668 L470.719791,356 C470.719791,356 472.973069,353.581661 464.70021,348.72283 C455.064481,343.064629 441.014967,337 441.014967,337" id="Fill-322" fill="#91E2F6"></path><path d="M432.987414,337 L437,343.872668 L403.279358,356 C403.279358,356 401.029212,353.581661 409.301107,348.72283 C418.934756,343.064629 432.987414,337 432.987414,337" id="Fill-323" fill="#91E2F6"></path><path d="M467,358.501254 C467,359.882668 468.119378,361 469.499582,361 C470.879786,361 472,359.882668 472,358.501254 C472,357.120675 470.879786,356 469.499582,356 C468.119378,356 467,357.120675 467,358.501254" id="Fill-324" fill="#001F46"></path><path d="M402,358.501254 C402,359.882668 403.118542,361 404.500418,361 C405.881458,361 407,359.882668 407,358.501254 C407,357.120675 405.881458,356 404.500418,356 C403.118542,356 402,357.120675 402,358.501254" id="Fill-325" fill="#001F46"></path><path d="M474,358.501254 C474,359.882668 475.120488,361 476.5,361 C477.879512,361 479,359.882668 479,358.501254 C479,357.120675 477.879512,356 476.5,356 C475.120488,356 474,357.120675 474,358.501254" id="Fill-326" fill="#367082"></path><path d="M395,358.501254 C395,359.882668 396.11984,361 397.500418,361 C398.879325,361 400,359.882668 400,358.501254 C400,357.120675 398.879325,356 397.500418,356 C396.11984,356 395,357.120675 395,358.501254" id="Fill-327" fill="#367082"></path><polygon id="Fill-328" fill="#367082" points="434 315 440 315 440 304 434 304"></polygon><path d="M429,297.999022 C429,301.313783 431.619759,304 434.849428,304 L438.150572,304 C441.380241,304 444,301.313783 444,297.999022 C444,294.683284 441.380241,292 438.150572,292 L434.849428,292 C431.619759,292 429,294.683284 429,297.999022" id="Fill-329" fill="#367082"></path><path d="M393.223314,293 C393.08327,292.326448 393,288.098554 393,287.371826 C393,282.747451 396.031768,279 399.772274,279 L475.230565,279 C478.970124,279 482,282.747451 482,287.371826 C482,288.098554 481.918623,292.326448 481.778579,293 L393.223314,293" id="Fill-330" fill="#3DC7C9"></path><path d="M482,295.50091 C482,296.881507 481.163422,298 480.133714,298 L393.867228,298 C392.836578,298 392,296.881507 392,295.50091 C392,294.120313 392.836578,293 393.867228,293 L480.133714,293 C481.163422,293 482,294.120313 482,295.50091" id="Fill-331" fill="#367082"></path><path d="M477.641685,249.622 C475.770275,249.761019 463.890767,249.969074 461.843526,249.992717 C448.840601,250.15065 437.635902,247.721127 437.015267,244.534091 C434.447187,231.290398 434.332184,217.707195 436.677862,204.459719 C437.232917,201.274575 448.602991,198.845051 461.879642,199.007713 C463.969653,199.031356 476.094374,199.241303 478,199.380322 C473.923577,215.895219 473.807624,233.10332 477.641685,249.622" id="Fill-332" fill="#3DC7C9"></path><path d="M479.726814,200.000356 C481.167686,200.017293 482.174413,200.702292 481.974763,201.528431 C478.385768,216.983253 478.250156,233.012985 481.571696,248.47157 C481.752511,249.301473 480.756143,249.982708 479.343524,249.999645 C477.930904,250.017523 476.626585,249.357929 476.446712,248.527085 C473.084677,233.032744 473.187327,216.963493 476.755605,201.471975 C476.949604,200.64019 478.278408,199.982478 479.726814,200.000356" id="Fill-333" fill="#367082"></path><path d="M480.593003,249.772944 C480.203324,249.895813 477.595846,249.993918 477.14074,249.999633 C474.273477,250.034874 471.318656,247.529868 470.748089,244.373369 C468.357099,231.233991 468.41964,217.761247 470.930901,204.623774 C471.528408,201.467275 474.556354,198.965126 477.481348,199.000368 C477.945113,199.00513 480.6007,199.106092 481,199.228009 C476.867484,215.84106 476.731818,233.155131 480.593003,249.772944" id="Fill-334" fill="#33A8B5"></path><path d="M401,211.882575 C401,211.882575 400.911014,214.984812 385.078035,214.999954 C369.24693,215.015095 346,211.309868 346,211.309868 L382.523664,208.029494 C382.523664,208.029494 396.546946,207.406909 401,211.882575" id="Fill-335" fill="#E6B09C"></path><path d="M358.355306,211.380935 C350.645734,211.635144 347.456527,215.757316 344.436233,217.103127 C341.414979,218.449936 338.401403,220.454697 338.420598,220.419806 C340.034876,216.934652 342.522516,216.756207 343.737544,215.606784 C344.950652,214.455368 344.643536,215.021605 341.891009,214.900981 C340.327596,214.831198 337.669123,217.780021 335.738131,219.43188 C334.068188,220.853456 333,221 333,221 C333,221 334.906039,218.046193 337.385041,215.634697 C340.374623,212.728741 344.100324,210.250454 344.989041,209.850698 C346.617716,209.127947 351.768627,208.772055 355.458818,209.157854 C359.62024,209.597486 363.912187,211.198503 358.355306,211.380935" id="Fill-336" fill="#E6B09C"></path><path d="M346,212 C346,212 339.856228,213.601942 338.7972,214.371966 C338.056283,214.90625 335,218 335,218 C335,218 337.301272,217.595874 338.601904,216.423544 C339.899515,215.251214 346,212 346,212" id="Fill-337" fill="#E6B09C"></path><path d="M394.180886,205 C394.180886,205 408.675701,205.423323 407.975419,214.292029 C407.581103,219.330718 404.33637,221.190656 399.95612,220.984742 C391.811273,220.593982 382.569968,219.703281 382.569968,219.703281 L378,206.117687 L394.180886,205" id="Fill-338" fill="#B0BFDE"></path><path d="M397.371548,206.362166 L410.267931,160.694581 C410.267931,160.694581 412.166634,154.003607 415.719352,155.127173 C420.843573,156.741645 418.519985,162.241506 418.187096,165.467596 C417.508039,172.042503 418.208909,174.86997 414.084305,190.808244 C411.541637,200.634929 409.43713,211.929574 407.143892,218.412198 C405.566698,222.879824 402.403774,216.667389 397.884634,215.060527 C389.45428,212.055155 397.371548,206.362166 397.371548,206.362166" id="Fill-339" fill="#B0BFDE"></path><path d="M422.433534,146.625321 C424.622434,156.583427 434.486977,162.808554 444.463723,160.529883 C454.442339,158.252165 460.756581,148.33218 458.565811,138.373121 C456.377846,128.415968 446.516109,122.190842 436.537492,124.470465 C426.558876,126.74723 420.244634,136.668168 422.433534,146.625321" id="Fill-340" fill="#282723"></path><path d="M404.981495,135.891252 C406.692413,143.551431 414.28199,148.369947 421.924914,146.65273 L423.915903,139.287503 C431.560733,137.572196 436.365782,129.969288 434.653911,122.310063 L433.488849,117.109732 C431.776979,109.448597 424.192165,104.631991 416.547336,106.346344 L413.085491,107.123339 C405.442567,108.840556 400.632755,116.441554 402.34653,124.100779 L404.981495,135.891252" id="Fill-341" fill="#282723"></path><path d="M406.309709,114 C406.606106,115.260998 407.004449,116.534321 407.503793,117.806696 C410.862332,126.34071 417.717226,131.854018 423.749003,131.366686 C424.826039,135.327924 426.431681,138.75158 428.074137,141.59878 C429.943139,144.843241 434.833693,147.611747 434.833693,147.611747 C437.203926,153.567827 413.471383,173.509602 412.456647,172.990033 C410.301632,171.884527 414.163291,157.559406 418.044773,153.124108 C419.868465,151.041091 421.722364,148.590205 421.761065,147.187938 C421.896993,142.271944 420.343267,141.226169 417.986249,138.975336 C413.853679,135.845597 409.118875,136.968169 409.118875,136.968169 C408.66012,137.071514 408.207029,136.966273 407.849275,136.719762 C407.367866,135.872144 406.999729,134.940144 406.776959,133.936087 L404.24248,122.576679 C403.540188,119.428926 404.403894,116.30298 406.309709,114" id="Fill-342" fill="#FFC4AD"></path><path d="M431,240.870164 C431,240.870164 425.01665,246.407742 423.333397,246.899422 C421.083486,247.557211 414.77872,244.773236 414.77872,244.773236 C414.77872,244.773236 416.51771,216.064021 415.870233,204.687024 C415.219041,193.310027 412.60777,190.020133 412.905962,186.505281 C413.389944,180.887971 408.926352,178.021416 410.244528,173.73772 C411.559917,169.455921 414.874402,154.065747 415.101994,156.202375 C417.045352,174.400255 423.874973,160.365524 425.238668,158.169098 C425.988329,156.959829 431,240.870164 431,240.870164" id="Fill-343" fill="#FEC12F"></path><path d="M418.549507,152.441047 C418.549507,152.441047 410.581559,158.35442 410.690939,161.083086 C410.79845,163.812699 406.57281,171.887054 408.284568,184.020348 C410.240329,197.871832 410.970467,207.171438 410.566601,216.012166 C410.166474,224.851003 406.140898,232.507164 406.004406,243.384931 C405.89596,251.90681 407.825544,252.66656 407.825544,252.66656 C407.825544,252.66656 411.541676,254.06117 414.664162,251.146114 C417.787583,248.234843 417.233201,219.065359 416.759219,211.723316 C416.281498,204.382219 414.024707,187.090571 413.499307,182.042917 C412.846763,175.773796 413.829318,169.657949 414.150915,167.859338 C415.256873,161.649824 416.576918,157.84445 417.494967,155.561415 C417.652961,155.169714 419.722776,153.490316 419.854594,153.18282 C420.419259,151.860117 419.20205,151.698327 418.549507,152.441047" id="Fill-344" fill="#D1DBEA"></path><path d="M420.285837,149.024125 C420.285837,149.024125 421.738218,148.683997 420.500579,150.557946 C419.827664,151.57833 419.786683,152.495842 419.786683,152.495842 C419.786683,152.495842 419.160487,151.751638 418.214636,152.819288 C417.357305,153.787772 416,155 416,155 C416,155 416.878642,152.206686 417.071254,152.011136 C417.781872,151.291028 420.285837,149.024125 420.285837,149.024125" id="Fill-345" fill="#B0BFDE"></path><path d="M427.456347,170.238652 C429.765403,180.4643 440.160403,186.857204 450.679017,184.517262 C461.194801,182.178258 467.850206,171.990094 465.543037,161.762573 C463.235868,151.535988 452.838981,145.142147 442.322253,147.483026 C431.805525,149.823904 425.151065,160.011131 427.456347,170.238652" id="Fill-346" fill="#282723"></path><polyline id="Fill-347" fill="#FFC4AD" points="388.280873 339 392 366.930837 375.924175 374.156781 367 376 382.83827 364.41984 377.657267 339.216628 388.280873 339"></polyline><path d="M392,371.622709 L388.63867,372.498925 L386.382334,370.467107 L374.002148,376.485521 L363.023597,379 C363.023597,379 362.890108,378.137707 363.25813,377.67361 C364.638444,375.934173 372.326118,372.045966 372.326118,372.045966 C372.326118,372.045966 372.450337,374.599429 373.543279,374.671829 C374.637148,374.744228 384.121362,369.925041 386.314662,368.5838 C390.091291,366.271668 390.797671,364.836679 391.085044,365.014892 C391.847044,365.4892 392,371.622709 392,371.622709" id="Fill-348" fill="#161711"></path><polyline id="Fill-349" fill="#FFC4AD" points="349 299.933768 336.628405 324 319.51112 323.142056 311 320.723435 329.899831 317.563992 340.222383 297 349 299.933768"></polyline><path d="M335.649637,328 L332.170751,327.191773 L331.072758,324.220523 L315.372976,323.992786 L306,321.829762 C306,321.829762 307.135165,320.581566 307.832849,320.295682 C309.92018,319.440939 317.331636,319 317.331636,319 C317.331636,319 316.550078,321.085496 317.513682,321.679552 C318.477285,322.279423 329.26469,322.631205 331.902925,322.441262 C336.444538,322.123398 337.765562,321.13492 337.946654,321.438247 C338.414636,322.244535 335.649637,328 335.649637,328" id="Fill-350" fill="#161711"></path><path d="M441.803998,228 L432.405988,232.058483 L428.318783,244.241473 L367.864387,234.353515 C367.864387,234.353515 361.705598,232.466594 357.785334,242.132117 C352.20325,255.889113 338,298.659645 338,298.659645 L346.992989,308 L375.190813,259.674266 C375.190813,259.674266 432.972259,286.604837 452.023432,280.791385 C459.331836,278.559502 464.917715,265.730887 463.874334,252.77032 C463.057652,242.618457 461.013576,233.279044 461.013576,233.279044 L441.803998,228" id="Fill-351" fill="#194866"></path><path d="M433,281.04382 L386.740118,277.693854 L390.717371,349.562383 L377.076466,350 L367,265.831381 C367,265.831381 369.716983,253.305794 378.553108,255.193852 C387.388284,257.081911 408.765425,273.574714 433,281.04382" id="Fill-352" fill="#163F59"></path><path d="M427.856734,246.472036 C427.856734,246.472036 426.735746,217.301557 425.877788,203.465048 C425.017917,189.627586 425.209212,162.929681 425.024612,159.604001 C424.840012,156.27832 425.754402,151.585765 425.754402,151.585765 C425.754402,151.585765 429.972457,144.415868 434.674488,145.038302 C438.808373,145.589245 445.183279,151.323638 449.183257,153.981132 C453.093327,156.579528 452.656218,205.352364 452.850382,207.807782 C453.55913,216.667685 458.853219,225.417971 462.849371,233.929006 C465.409855,239.385067 466,248 466,248 C466,248 442.260291,243.463768 427.856734,246.472036" id="Fill-353" fill="#D1DBEA"></path><polyline id="Fill-354" fill="#B0BFDE" points="432.284436 144 428.842755 147.292938 424 152.340771 426.45483 158 435 146.36056 432.284436 144"></polyline><path d="M439,218.910906 C439,218.910906 438.496987,222.416236 419.479314,220.345672 C400.460692,218.272294 373,211 373,211 L417.290735,212.098112 C417.290735,212.098112 434.214737,213.244987 439,218.910906" id="Fill-355" fill="#FFC4AD"></path><path d="M387.830284,213.492641 C378.754509,212.762765 374.550423,216.483465 370.854397,217.447679 C367.161221,218.410041 363.401569,220.033737 363.42531,219.999466 C365.71111,216.718729 368.652166,216.85396 370.206738,215.856401 C371.76131,214.857916 371.333969,215.388651 368.122263,214.916269 C366.294193,214.646734 362.843177,217.262431 360.393088,218.666609 C358.272527,219.881834 357,219.892949 357,219.892949 C357,219.892949 359.570694,217.175365 362.752011,215.079287 C366.589534,212.548803 371.239004,210.539792 372.32635,210.254511 C374.31586,209.736743 380.401197,210.037771 384.683154,210.896394 C389.517806,211.863387 394.370501,214.015039 387.830284,213.492641" id="Fill-356" fill="#FFC4AD"></path><path d="M373,212 C373,212 365.958057,212.96293 364.680114,213.64519 C363.78934,214.119153 360,217 360,217 C360,217 362.613631,216.840247 364.208694,215.766108 C365.801864,214.690203 373,212 373,212" id="Fill-357" fill="#FFC4AD"></path><path d="M430.521055,211.069377 L432.612361,166.291996 C432.612361,166.291996 435.014779,156.911014 438.511256,154.756065 C442.659092,152.202085 448.361545,156.93749 448.361545,156.93749 C448.361545,156.93749 451.282795,163.929967 449.324016,196.946371 C448.010957,219.02917 445.988264,230.46298 435.579667,228.849841 C425.867545,227.343551 414.89782,225.157397 414.89782,225.157397 L411,210.093551 L430.521055,211.069377" id="Fill-358" fill="#B0BFDE"></path><path d="M392.963123,222.302357 L393,222.230141 L392.963123,220 L301,220 L301,222.302357 L301.23639,222.717598 C302.416447,224.651273 304.537334,225 306.964583,225 L386.994758,225 C389.422952,225 391.541949,224.651273 392.726734,222.717598 L392.963123,222.302357" id="Fill-359" fill="#D0DEE6"></path><path d="M371,222.164345 L371,222.237134 L371.224345,222.638612 C371.580877,223.235712 372.03236,223.678135 372.546212,224 L386.315041,224 C388.615275,224 390.622279,223.663349 391.742143,221.791299 L391.959041,221.385272 L392,221.318169 L391.975797,220 L371,220 L371,222.164345" id="Fill-360" fill="#B6C2C9"></path><polygon id="Fill-361" fill="#B6C2C9" points="312 222 358 222 358 220 312 220"></polygon><path d="M371,219 L359.052649,174.142891 C358.736175,172.957402 357.51292,172 356.32188,172 L291.665571,172 C290.472636,172 289.759149,172.957402 290.074675,174.142891 L302.021079,219 L371,219" id="Fill-362" fill="#EFFAFF"></path><path d="M334.849349,196.003619 C335.485328,198.207645 334.048961,200 331.647797,200 C329.245648,200 326.786399,198.207645 326.149435,196.003619 C325.517395,193.792355 326.947855,192 329.352957,192 C331.755106,192 334.217308,193.792355 334.849349,196.003619" id="Fill-363" fill="#B6C2C9"></path><polyline id="Fill-364" fill="#ACD5F4" points="108.644707 380 118 380 102.56541 229 89 229 108.644707 380"></polyline><polyline id="Fill-365" fill="#86BBD8" points="89 236.01643 108 283 102.248564 229 89.8418655 229 89 236.01643"></polyline><polyline id="Fill-366" fill="#ACD5F4" points="9.35620301 380 0 380 15.4360902 229 29 229 9.35620301 380"></polyline><polyline id="Fill-367" fill="#86BBD8" points="28 236.000396 22.0537611 282 15 232.426193 15.3466291 229 27.1977744 229 28 236.000396"></polyline><polyline id="Fill-368" fill="#ACD5F4" points="411.35402 380 402 380 417.43465 229 431 229 411.35402 380"></polyline><polyline id="Fill-369" fill="#86BBD8" points="430 236.000396 424.05505 282 417 232.426193 417.348432 229 429.197948 229 430 236.000396"></polyline><polyline id="Fill-370" fill="#ACD5F4" points="509.643464 380 519 380 503.56491 229 490 229 509.643464 380"></polyline><polyline id="Fill-371" fill="#86BBD8" points="490 236.01643 509 283 503.610766 232.434041 503.247878 229 490.839855 229 490 236.01643"></polyline><polygon id="Fill-372" fill="#367082" points="227 234 517 234 517 225 227 225"></polygon><polygon id="Fill-373" fill="#367082" points="4 234 408 234 408 225 4 225"></polygon><path d="M112,99.1048624 C112,102.069619 114.405151,104.473784 117.367094,104.473784 L120.946742,104.473784 L120.946742,117 L133.473133,104.473784 L174.631955,104.473784 C177.597705,104.473784 180,102.069619 180,99.1048624 L180,54.368922 C180,51.4051172 177.597705,49 174.631955,49 L117.367094,49 C114.405151,49 112,51.4051172 112,54.368922 L112,99.1048624" id="Fill-375" fill="#E4EFFF"></path><path d="M234,125.103911 C234,128.068667 231.594917,130.473784 228.632105,130.473784 L225.052556,130.473784 L225.052556,143 L212.526516,130.473784 L171.368847,130.473784 C168.404132,130.473784 166,128.068667 166,125.103911 L166,80.3679702 C166,77.4051172 168.404132,75 171.368847,75 L228.632105,75 C231.594917,75 234,77.4051172 234,80.3679702 L234,125.103911" id="Fill-594" fill="#3BB6D5"></path><polygon id="Fill-595" fill="#FFFFFF" points="177 95 223 95 223 91 177 91"></polygon><polygon id="Fill-596" fill="#FFFFFF" points="177 104 223 104 223 100 177 100"></polygon><polygon id="Fill-597" fill="#FFFFFF" points="177 113 223 113 223 109 177 109"></polygon><path d="M462.272641,8 L419.72641,8 C417.116445,8 415,10.1319312 415,12.7619503 L415,46.0946463 C415,48.7246654 417.116445,50.8565966 419.72641,50.8565966 L433.917978,50.8565966 L436.283081,53.2380497 L441.006644,58 L448.09436,50.8565966 L462.272641,50.8565966 C464.883555,50.8565966 467,48.7246654 467,46.0946463 L467,12.7619503 C467,10.1319312 464.883555,8 462.272641,8" id="Fill-598" fill="#3DC7C9"></path><path d="M441.499527,35.5721046 C437.596352,35.5721046 434.427625,32.4042334 434.427625,28.5009465 C434.427625,24.5967131 437.596352,21.4278954 441.499527,21.4278954 C445.404595,21.4278954 448.570482,24.5967131 448.570482,28.5009465 C448.570482,32.4042334 445.404595,35.5721046 441.499527,35.5721046 Z M458,30.8576837 L458,26.1423163 L453.047208,26.1423163 C452.740557,24.6364653 452.144291,23.2422991 451.322769,22.0071416 L454.831273,18.5004302 L451.49881,15.1669248 L447.990306,18.6755292 C446.754238,17.8549303 445.361058,17.2577009 443.857143,16.9538806 L443.857143,12 L439.141911,12 L439.141911,16.9538806 C437.638942,17.2577009 436.244816,17.8549303 435.007801,18.6755292 L431.500244,15.1669248 L428.164941,18.5004302 L431.673445,22.0090346 C430.855709,23.244192 430.25755,24.6393048 429.951846,26.1423163 L425,26.1423163 L425,30.8576837 L429.951846,30.8576837 C430.25755,32.3625882 430.855709,33.7586474 431.673445,34.9919119 L428.164941,38.5033557 L431.498351,41.8349682 L435.005908,38.3254173 C436.244816,39.1450697 437.638942,39.7422991 439.141911,40.0489589 L439.141911,45 L443.857143,45 L443.857143,40.0489589 C445.361058,39.7422991 446.754238,39.1450697 447.990306,38.3263638 L451.49881,41.8349682 L454.831273,38.5033557 L451.322769,34.9938049 C452.144291,33.7586474 452.740557,32.3625882 453.047208,30.8576837 L458,30.8576837 Z" id="Fill-599" fill="#FFFFFF"></path><path d="M164.989916,55.547298 C165.28846,44.487336 158.950202,35.3386816 147.036324,35.0089834 C135.119655,34.6792852 128.302423,43.4662135 128.006669,54.5290015 C127.774158,63.1557908 133.666924,66.3180676 138.544081,73.6138181 C139.508538,75.0578962 138.356212,80.5892902 138.356212,80.5892902 L153.253676,81 C153.253676,81 152.398034,75.4130283 153.441545,74.0245278 C158.70281,67.0057239 164.759265,64.1778552 164.989916,55.547298" id="Fill-687" fill="#FEC12F"></path><path d="M144.443932,76.3390747 C137.393066,66.3806135 128.875013,62.0665829 129.209703,50.2911491 C129.281701,47.7578074 129.622228,45.3137792 130.2128,43 C128.221201,46.125044 127.123729,49.9385466 127.006977,54.0767413 C126.763743,62.5968821 132.928264,65.7200654 138.030339,72.9256223 C139.039274,74.3518481 137.833806,79.8148604 137.833806,79.8148604 L144.980993,80 C145.050071,78.466784 144.944021,77.0442796 144.443932,76.3390747" id="Fill-688" fill="#FFAB01"></path><path d="M137.059187,80 L137.002427,82.1814654 C136.906224,85.7974815 139.681677,88.8098403 143.204625,88.9086385 L146.391826,88.997557 C149.913812,89.0953672 152.845113,86.2440496 152.942278,82.6280336 L153,80.4465681 L137.059187,80" id="Fill-689" fill="#3D7AA8"></path><polyline id="Fill-690" fill="#F4DA80" points="152.371084 55 149.993762 51.8199906 147.439839 54.8693404 145.063488 51.691211 142.514416 54.7405609 140.136124 51.5614915 138.250762 53.8203039 137 52.8408272 140.205988 49 142.584281 52.1800094 145.133352 49.1306596 147.511644 52.310669 150.065567 49.2603791 152.442889 52.4403885 154.997782 49.3919787 158 53.3926054 156.69975 54.3091023 154.927918 51.9478302 152.371084 55"></polyline><polyline id="Fill-691" fill="#F4DA80" points="143.695078 80 142.369748 79.9571751 142.668267 66.8565764 140 56.4606051 141.269308 56 144 66.6424521 143.695078 80"></polyline><polyline id="Fill-692" fill="#F4DA80" points="149.389961 80 148 79.9569069 148.36092 66.3921475 151.693973 56 153 56.5448887 149.706396 66.8163754 149.389961 80"></polyline><polyline id="Fill-693" fill="#34688F" points="151.955778 83 142 82.7184224 142.045184 81 152 81.2805791 151.955778 83"></polyline><polyline id="Fill-694" fill="#34688F" points="148.956145 87 142 86.7879418 142.042922 85 149 85.2110187 148.956145 87"></polyline><polygon id="Fill-695" fill="#FFFFFF" points="344 94 347 94 347 86 344 86"></polygon><polygon id="Fill-696" fill="#FFFFFF" points="344 82 347 82 347 77 344 77"></polygon><polygon id="Fill-697" fill="#FFFFFF" points="342 79 349 79 349 76 342 76"></polygon><path d="M347,93 C347,94.1042945 346.102314,95 344.999442,95 C343.894341,95 343,94.1042945 343,93 C343,91.8957055 343.894341,91 344.999442,91 C346.102314,91 347,91.8957055 347,93" id="Fill-698" fill="#FFFFFF"></path><polyline id="Fill-699" fill="#FFFFFF" points="352.601896 85 351 83.3981043 354.399052 80 356 81.6009479 352.601896 85"></polyline><polygon id="Fill-700" fill="#FFFFFF" points="330 94 340 94 340 91 330 91"></polygon><polygon id="Fill-701" fill="#FFFFFF" points="332 99 342 99 342 96 332 96"></polygon><path d="M334.078271,91 C334.027954,91.4662577 334,91.9403235 334,92.4188511 C334,93.3022867 334.091688,94.1645287 334.254939,95 L337,95 C336.793142,94.1712214 336.671264,93.3089794 336.671264,92.4188511 C336.671264,91.9369771 336.714871,91.4662577 336.778606,91 L334.078271,91" id="Fill-702" fill="#FFFFFF"></path><path d="M345.730082,81 C340.714761,81 336.458968,84.2161599 335,88.6427322 L337.387488,88.6427322 C338.743183,85.4467305 341.970938,83.1908372 345.730082,83.1908372 C350.706909,83.1908372 354.756156,87.1436901 354.756156,91.9990837 C354.756156,96.8581424 350.706909,100.810079 345.730082,100.810079 C342.354927,100.810079 339.411642,98.9903374 337.864422,96.3092878 L335.362395,96.3092878 C337.082362,100.239234 341.079973,103 345.730082,103 C351.944309,103 357,98.0658059 357,91.9990837 C357,85.9351104 351.944309,81 345.730082,81" id="Fill-703" fill="#FFFFFF"></path><polygon id="Fill-704" fill="#FFFFFF" points="330 88 334 88 334 85 330 85"></polygon></g></g></g></g></svg> 