<svg xmlns="http://www.w3.org/2000/svg" width="174" height="29.908" viewBox="0 0 174 29.908">
  <g id="グループ_529" data-name="グループ 529" transform="translate(-229.328 -251.288)">
    <g id="グループ_528" data-name="グループ 528" transform="translate(337.23 258.068)">
      <path id="パス_505" data-name="パス 505" d="M689.056,289.108v-.065a8.742,8.742,0,0,1,8.926-8.867,8.369,8.369,0,0,1,6.8,2.86l-2.952,3.179a4.97,4.97,0,0,0-3.878-1.875,4.354,4.354,0,0,0-4.133,4.64v.063c0,2.606,1.684,4.7,4.322,4.7a5.39,5.39,0,0,0,3.908-1.812l2.828,2.859a8.566,8.566,0,0,1-6.955,3.114A8.7,8.7,0,0,1,689.056,289.108Z" transform="translate(-689.056 -280.176)" fill="#3e3a39"/>
      <path id="パス_506" data-name="パス 506" d="M777.992,280.495h4.834v2.414a6.079,6.079,0,0,1,5.019-2.733,5.1,5.1,0,0,1,4.8,2.7,7.021,7.021,0,0,1,5.6-2.7c3.589,0,5.75,2.161,5.75,6.26v11.092H799.16v-9.5c0-2.287-1.016-3.462-2.829-3.462s-2.926,1.175-2.926,3.462v9.5h-4.83v-9.5c0-2.287-1.015-3.462-2.827-3.462s-2.923,1.175-2.923,3.462v9.5h-4.834Z" transform="translate(-757.118 -280.176)" fill="#3e3a39"/>
      <path id="パス_507" data-name="パス 507" d="M911.767,295.482l2.066-3.176a9.637,9.637,0,0,0,5.372,2.033c1.4,0,2.031-.51,2.031-1.271V293c0-1.049-1.652-1.4-3.524-1.97-2.385-.7-5.083-1.812-5.083-5.117v-.062c0-3.463,2.793-5.4,6.228-5.4a11.776,11.776,0,0,1,6.353,1.969l-1.842,3.339a10.073,10.073,0,0,0-4.605-1.591c-1.18,0-1.783.508-1.783,1.178v.062c0,.954,1.623,1.4,3.465,2.034,2.385.793,5.148,1.939,5.148,5.053v.065c0,3.78-2.828,5.5-6.517,5.5A11.941,11.941,0,0,1,911.767,295.482Z" transform="translate(-859.495 -280.387)" fill="#3e3a39"/>
    </g>
    <path id="パス_508" data-name="パス 508" d="M244.263,251.437a14.936,14.936,0,1,0,14.94,14.935A14.935,14.935,0,0,0,244.263,251.437Zm5.411,19.965a7.29,7.29,0,0,1-6.412,2.723c-2.629-.161-5.426-2.516-5.541-4.974a4.643,4.643,0,0,1,4.59-5.01c.931-.087,1.981.189,2.171,1.19a1.4,1.4,0,0,1-1.255,1.585c-1.762.137-2.444,1.06-2.25,2.235.189,1.125,1.493,1.656,2.694,1.688a4.655,4.655,0,0,0,3.818-1.848,4.761,4.761,0,0,0-.194-5.982c-1.374-1.538-3.276-2.454-6.487-.961a1.943,1.943,0,0,1-2.131-.189,1.558,1.558,0,0,1-.428-1.475,2.074,2.074,0,0,1,1.18-1.359,8.064,8.064,0,0,1,10.027,1.534A8.223,8.223,0,0,1,249.675,271.4Z" transform="translate(0 -0.114)" fill="#c41134"/>
    <path id="パス_509" data-name="パス 509" d="M504.944,296.41v-.058a7.584,7.584,0,0,1,7.567-7.682,7.5,7.5,0,0,1,7.513,7.627v.055a7.582,7.582,0,0,1-7.567,7.682A7.5,7.5,0,0,1,504.944,296.41Zm13.556,0v-.058a6.156,6.156,0,0,0-6.044-6.36,6.056,6.056,0,0,0-5.984,6.3v.055a6.15,6.15,0,0,0,6.038,6.36A6.057,6.057,0,0,0,518.5,296.41Z" transform="translate(-210.926 -28.608)" fill="#888988"/>
    <path id="パス_510" data-name="パス 510" d="M475.06,253.346a.784.784,0,0,0,.009-.107.754.754,0,0,0-1.508-.008h-.01v22.751h0v.008a.754.754,0,0,0,1.508,0c0-.017,0-.034,0-.052Z" transform="translate(-186.902 -0.916)" fill="#888988"/>
    <path id="パス_511" data-name="パス 511" d="M606.351,292.573c-.029,1.282-2.349,3.054-4.724,3.079a5.723,5.723,0,0,1-6.024-5.533,6.781,6.781,0,0,1,6.267-6.62,7.234,7.234,0,0,1,4.425,1.372,1.455,1.455,0,0,0,.21.149.819.819,0,0,0,.353.1.753.753,0,0,0,.453-1.358v0a5.791,5.791,0,0,0-1.42-.834,9.6,9.6,0,0,0-4.156-.943,8.166,8.166,0,0,0-7.6,8.259c0,4.829,4.6,6.9,7.478,6.882a6.585,6.585,0,0,0,4.785-1.926s.055,2.753-.094,3.991a4.049,4.049,0,0,1-3.883,3.706c-2.215.132-3.471-.971-4.819-3.127l0,0a.748.748,0,0,0-.662-.4.763.763,0,0,0-.752.757,1.122,1.122,0,0,0,.1.443,6.767,6.767,0,0,0,6.222,3.894,5.456,5.456,0,0,0,5.313-5.183,62.485,62.485,0,0,0,.055-6.746v-.01a.757.757,0,0,0-1.513,0S606.357,292.516,606.351,292.573Z" transform="translate(-279.183 -23.488)" fill="#888988"/>
    <path id="パス_512" data-name="パス 512" d="M388.783,260.221a.219.219,0,0,0-.025-.005l-.02,0h-.065v.007a.753.753,0,0,0,.085,1.5,1.659,1.659,0,0,0,.224,0c4.536,0,7.373,2.6,7.373,5.92a6.6,6.6,0,0,1-6.184,6.392,6.51,6.51,0,0,1-6.258-6.5c-.075-1.877-.124-4.318-.124-4.318V252.047h0v-.005a.754.754,0,0,0-1.508,0v.005h0v11.169s.1,3.714.114,4.361a7.823,7.823,0,0,0,7.727,7.908,7.71,7.71,0,0,0,7.632-7.831C397.754,263.595,394.488,260.221,388.783,260.221Z" transform="translate(-117.054 0)" fill="#888988"/>
  </g>
</svg>
